<svg width="120" height="60" viewBox="0 0 120 60" fill="none" xmlns="http://www.w3.org/2000/svg">
<path d="M47.3865 22.5924C46.8176 22.5924 46.2984 22.6681 45.8291 22.8196C45.374 22.959 44.975 23.1937 44.6323 23.5236C44.303 23.8401 44.0371 24.2518 43.8344 24.7589C43.6445 25.2652 43.5368 25.8696 43.5112 26.5722C43.4714 27.7121 43.4714 28.8521 43.5112 29.992C43.5368 30.701 43.6445 31.3055 43.8344 31.8054C44.0371 32.3117 44.303 32.7298 44.6323 33.0598C44.9736 33.3762 45.3726 33.6109 45.8291 33.7638C46.2984 33.9032 46.8176 33.9729 47.3865 33.9729C47.9454 33.9729 48.4645 33.8971 48.9438 33.7457C49.4231 33.5807 49.8349 33.341 50.179 33.0267C50.5346 32.6975 50.8141 32.2793 51.0174 31.7723C51.2201 31.266 51.3215 30.6708 51.3215 29.9867V29.0181H48.0115C47.7328 29.0181 47.5934 28.8759 47.5934 28.5915V28.3248C47.5934 28.0403 47.7328 27.8981 48.0115 27.8981H52.0756C52.3601 27.8981 52.5023 28.0403 52.5023 28.3248V29.9963C52.5023 30.7572 52.3885 31.4541 52.1609 32.087C51.9334 32.7078 51.5977 33.2468 51.154 33.7041C50.7238 34.1592 50.1847 34.5137 49.5369 34.7676C48.8969 35.0079 48.1751 35.1281 47.3715 35.1281C46.548 35.1281 45.8262 35.0079 45.2061 34.7676C44.5853 34.5144 44.0598 34.166 43.6296 33.7222C43.2114 33.2792 42.8886 32.7537 42.661 32.1456C42.4456 31.5248 42.3254 30.8407 42.3005 30.0933C42.2749 29.5244 42.2621 28.9228 42.2621 28.2885C42.2621 27.6485 42.2749 27.0469 42.3005 26.4837C42.3261 25.737 42.4527 25.0593 42.6802 24.4506C42.9078 23.8298 43.2306 23.2978 43.6488 22.8548C44.079 22.4118 44.6045 22.0697 45.2253 21.8287C45.8462 21.5755 46.5615 21.4489 47.3715 21.4489C48.2462 21.4489 48.9936 21.5819 49.6137 21.8479C50.2345 22.1138 50.7412 22.4338 51.1337 22.8079C51.5263 23.1755 51.8178 23.562 52.0084 23.9674C52.1983 24.3727 52.2996 24.7084 52.3124 24.9743C52.3252 25.0881 52.2932 25.183 52.2164 25.2591C52.1403 25.3231 52.039 25.3551 51.9124 25.3551H51.4943C51.3805 25.3551 51.298 25.3302 51.2468 25.2805C51.197 25.2165 51.1465 25.1151 51.0953 24.9765C50.9943 24.692 50.8521 24.4076 50.6686 24.1231C50.4909 23.8387 50.2512 23.5855 49.9497 23.3636C49.646 23.1361 49.2852 22.9522 48.867 22.8121C48.4489 22.6728 47.9546 22.6031 47.3843 22.6031L47.3865 22.5924ZM56.3551 26.3717C56.8103 25.497 57.6714 25.0597 58.9387 25.0597H59.6427C59.9214 25.0597 60.0608 25.199 60.0608 25.4778V25.7445C60.0608 26.0232 59.9214 26.1626 59.6427 26.1626H58.8256C58.0647 26.1626 57.4631 26.3841 57.0208 26.8272C56.5777 27.2702 56.3562 27.8718 56.3562 28.632V34.5201C56.3562 34.6467 56.3118 34.748 56.2229 34.8241C56.1468 34.9002 56.0455 34.9382 55.9189 34.9382H55.6149C55.3361 34.9382 55.1967 34.7989 55.1967 34.5201V25.4959C55.1967 25.3693 55.2348 25.268 55.3109 25.1919C55.387 25.103 55.4883 25.0586 55.6149 25.0586H55.9189C56.0455 25.0586 56.1468 25.103 56.2229 25.1919C56.3118 25.268 56.3562 25.3693 56.3562 25.4959V26.3706L56.3551 26.3717ZM68.0887 34.9436C67.8099 34.9436 67.6705 34.8042 67.6705 34.5254V33.6326C67.5568 33.8104 67.4049 33.9882 67.2151 34.1659C67.0373 34.3437 66.8158 34.502 66.5505 34.6406C66.2846 34.78 65.9646 34.8938 65.5905 34.982C65.2229 35.0829 64.7926 35.1334 64.2998 35.1334C63.8447 35.1334 63.4074 35.0637 62.9878 34.9244C62.5825 34.7729 62.2216 34.5702 61.9051 34.3164C61.6015 34.0632 61.3547 33.7656 61.1648 33.4235C60.987 33.0822 60.8982 32.7089 60.8982 32.3035C60.8982 31.8733 60.987 31.4868 61.1648 31.144C61.3547 30.8027 61.6143 30.5051 61.9435 30.2512C62.2728 29.9853 62.6653 29.7701 63.1211 29.6059C63.5905 29.4281 64.1035 29.3015 64.6604 29.2261L67.662 28.808V28.1434C67.662 27.4593 67.4529 26.9274 67.0348 26.5477C66.6295 26.1679 65.9774 25.9781 65.0785 25.9781C64.3695 25.9781 63.8184 26.1175 63.4251 26.3962C63.0454 26.6622 62.8057 26.9537 62.7062 27.2709C62.6564 27.4224 62.5931 27.5301 62.5163 27.5941C62.4523 27.6439 62.3634 27.6688 62.2497 27.6688H61.983C61.8692 27.6688 61.7679 27.6307 61.679 27.5546C61.6029 27.4657 61.5648 27.3644 61.5648 27.2506C61.5648 27.0728 61.6281 26.8513 61.7547 26.5861C61.8813 26.3201 62.084 26.0606 62.3627 25.8074C62.6472 25.5542 63.0145 25.3391 63.4646 25.1621C63.9076 24.9722 64.4467 24.8773 65.0817 24.8773C65.8284 24.8773 66.4428 24.9786 66.9249 25.1813C67.4185 25.3839 67.8049 25.6499 68.0844 25.9791C68.3632 26.2956 68.5531 26.6501 68.654 27.0426C68.7678 27.4352 68.8247 27.8217 68.8247 28.2021V34.5276C68.8247 34.8063 68.6853 34.9457 68.4066 34.9457H68.0834L68.0887 34.9436ZM64.4982 34.0315C64.9285 34.0315 65.3338 33.9619 65.7142 33.8225C66.1068 33.671 66.4488 33.4495 66.7404 33.1579C67.0248 32.8735 67.2524 32.5062 67.4231 32.056C67.5881 31.613 67.6705 31.0939 67.6705 30.4987V29.8533L65.2204 30.1947C63.1183 30.4791 62.0672 31.1504 62.0672 32.2086C62.0672 32.525 62.1369 32.7974 62.2763 33.0257C62.4278 33.2532 62.6177 33.4431 62.8459 33.5953C63.0735 33.7467 63.333 33.8605 63.6246 33.9366C63.9091 34.0006 64.2006 34.0326 64.4993 34.0326L64.4982 34.0315ZM76.1848 35.1334C75.387 35.1334 74.7348 34.9912 74.2285 34.7068C73.7222 34.4223 73.3105 34.0678 72.9933 33.6433V38.1447C72.9933 38.4234 72.8539 38.5628 72.5752 38.5628H72.252C71.9732 38.5628 71.8338 38.4234 71.8338 38.1447V25.4778C71.8338 25.199 71.9732 25.0597 72.252 25.0597H72.5752C72.8539 25.0597 72.9933 25.199 72.9933 25.4778V26.3706C73.3098 25.9404 73.7215 25.5859 74.2285 25.3071C74.7348 25.0227 75.387 24.8805 76.1848 24.8805C76.9194 24.8805 77.5399 25.0134 78.0462 25.2794C78.5653 25.5326 78.9835 25.8746 79.3006 26.3055C79.6171 26.7237 79.8446 27.2051 79.9833 27.7498C80.1348 28.2818 80.2237 28.8265 80.25 29.384C80.2628 29.5739 80.2692 29.7829 80.2692 30.0112C80.2692 30.2388 80.2628 30.4478 80.25 30.6384C80.2244 31.1974 80.1355 31.7485 79.9833 32.2918C79.8439 32.8237 79.6164 33.3051 79.3006 33.7361C78.9842 34.1542 78.566 34.4963 78.0462 34.7622C77.5399 35.0154 76.9194 35.142 76.1848 35.142V35.1334ZM72.9933 29.32C72.9805 29.5099 72.9741 29.7566 72.9741 30.0603C72.9741 30.3639 72.9805 30.6107 72.9933 30.8006C73.0061 31.1803 73.0694 31.5668 73.1832 31.96C73.3098 32.3398 73.4996 32.6818 73.7528 32.9862C74.0059 33.2898 74.326 33.543 74.7128 33.7457C75.0925 33.9355 75.5484 34.0305 76.0803 34.0305C76.6392 34.0305 77.1015 33.9355 77.467 33.7457C77.8467 33.5558 78.1507 33.3026 78.379 32.9862C78.6194 32.6569 78.79 32.2836 78.891 31.8662C79.0048 31.4359 79.0745 30.9926 79.1001 30.536C79.1129 30.1805 79.1129 29.826 79.1001 29.4725C79.0745 29.0174 79.0048 28.5801 78.891 28.1605C78.79 27.7424 78.6194 27.3751 78.379 27.0586C78.1514 26.7294 77.8474 26.4698 77.467 26.2799C77.0993 26.0773 76.6371 25.9759 76.0803 25.9759C75.5356 25.9759 75.0733 26.0773 74.6936 26.2799C74.3139 26.4826 73.9939 26.7486 73.7336 27.0778C73.4932 27.3943 73.3094 27.7488 73.1821 28.1413C73.0683 28.5338 73.005 28.9264 72.9922 29.3189L72.9933 29.32ZM84.0154 26.3717C84.3567 25.9286 84.7685 25.5678 85.2506 25.289C85.7299 25.0102 86.382 24.8709 87.2069 24.8709C87.8526 24.8709 88.4162 24.9786 88.8976 25.1941C89.3769 25.4095 89.7758 25.7071 90.0944 26.0869C90.4237 26.4666 90.6704 26.9164 90.8347 27.4362C90.9997 27.9554 91.0822 28.5189 91.0822 29.1269V34.5222C91.0822 34.801 90.9428 34.9404 90.664 34.9404H90.344C90.0653 34.9404 89.9259 34.801 89.9259 34.5222V29.2208C89.9259 28.2074 89.6791 27.416 89.1856 26.8464C88.6921 26.2632 87.9703 25.9717 87.0202 25.9717C86.1086 25.9717 85.3804 26.2561 84.8357 26.825C84.2909 27.3939 84.0186 28.1929 84.0186 29.2219V34.5233C84.0186 34.8021 83.8792 34.9414 83.6004 34.9414H83.2772C82.9985 34.9414 82.8591 34.8021 82.8591 34.5233V21.8671C82.8591 21.5883 82.9985 21.4489 83.2772 21.4489H83.6004C83.8792 21.4489 84.0186 21.5883 84.0186 21.8671V26.3685L84.0154 26.3717ZM98.8316 21.4521C99.5662 21.4521 100.238 21.5599 100.846 21.7753C101.454 21.9908 101.973 22.3201 102.403 22.7631C102.846 23.1933 103.188 23.738 103.429 24.3972C103.682 25.0429 103.822 25.8092 103.847 26.696C103.873 27.2649 103.886 27.7968 103.886 28.2917C103.886 28.7852 103.873 29.3172 103.847 29.8875C103.783 31.6987 103.321 33.0285 102.461 33.8769L103.677 35.5868C103.689 35.6124 103.702 35.6373 103.715 35.6614C103.728 35.687 103.734 35.7315 103.734 35.7948C103.734 35.8958 103.696 35.9846 103.62 36.0615C103.544 36.1375 103.455 36.1756 103.353 36.1756H102.935C102.796 36.1756 102.676 36.1187 102.575 36.0049C102.474 35.9039 102.391 35.815 102.327 35.7382L101.489 34.5788C100.728 34.9464 99.8411 35.1302 98.8284 35.1302C97.2455 35.1302 96.0234 34.706 95.1622 33.8577C94.3139 33.0093 93.8641 31.6859 93.8129 29.8875C93.7873 29.3186 93.7745 28.7867 93.7745 28.2917C93.7745 27.7982 93.7873 27.2663 93.8129 26.696C93.8385 25.8092 93.9715 25.0429 94.2118 24.3972C94.465 23.7387 94.807 23.194 95.238 22.7631C95.681 22.3201 96.2001 21.9908 96.7953 21.7753C97.4034 21.5599 98.081 21.4521 98.8284 21.4521H98.8316ZM98.8316 22.5935C98.2997 22.5935 97.8055 22.676 97.3489 22.8409C96.8938 22.9924 96.4949 23.2392 96.1521 23.5812C95.8108 23.9226 95.5384 24.3599 95.335 24.8933C95.1452 25.4252 95.0374 26.0581 95.0118 26.792C94.999 27.0764 94.9862 27.3424 94.9734 27.5898C94.9734 27.8302 94.9734 28.0649 94.9734 28.2938C94.9734 28.5214 94.9734 28.7611 94.9734 29.0128C94.9862 29.2532 94.999 29.5127 95.0118 29.7915C95.0374 30.5382 95.1452 31.1782 95.335 31.7115C95.5377 32.2306 95.8037 32.6609 96.1329 33.0022C96.4743 33.3435 96.8732 33.5967 97.3298 33.7617C97.7849 33.9131 98.2841 33.9889 98.8274 33.9889C99.3721 33.9889 99.8713 33.9131 100.325 33.7617C100.78 33.5967 101.173 33.3435 101.503 33.0022C101.844 32.6609 102.11 32.2306 102.3 31.7115C102.503 31.1796 102.617 30.5396 102.642 29.7915C102.655 29.5127 102.661 29.2532 102.661 29.0128C102.661 28.7596 102.661 28.52 102.661 28.2938C102.661 28.0663 102.661 27.8316 102.661 27.5898C102.661 27.3495 102.655 27.0835 102.642 26.792C102.616 26.0574 102.502 25.4245 102.3 24.8933C102.111 24.3613 101.845 23.924 101.503 23.5812C101.161 23.2399 100.762 22.9931 100.306 22.8409C99.8507 22.676 99.3564 22.5935 98.8231 22.5935H98.8316ZM108.104 33.8001H114.658C114.943 33.8001 115.085 33.9423 115.085 34.2268V34.5116C115.085 34.7903 114.943 34.9297 114.658 34.9297H107.326C107.047 34.9297 106.908 34.7903 106.908 34.5116V22.0591C106.908 21.7803 107.047 21.6409 107.326 21.6409H107.686C107.965 21.6409 108.104 21.7803 108.104 22.0591V33.8001ZM7.73028 39.1474L6.45026 38.4071L20.7204 13.692L22.0004 14.4323L7.73028 39.1474Z" fill="#A545B1"/>
<path d="M6.15906 36.4337H34.6993V37.9132H6.15906V36.4337Z" fill="#A545B1"/>
<path d="M20.9998 45.5069L6.72333 37.2647L7.46361 35.9846L21.7391 44.2248L20.9998 45.5069ZM33.4011 24.0239L19.1257 15.7827L19.866 14.5027L34.1414 22.7449L33.4011 24.0239Z" fill="#A545B1"/>
<path d="M7.46678 24.0196L6.7265 22.7396L21.0137 14.5069L21.754 15.787L7.46678 24.0196Z" fill="#A545B1"/>
<path d="M33.1376 39.1474L18.8664 14.4323L20.1465 13.692L34.4166 38.4071L33.1376 39.1474ZM7.29077 21.7583H8.76813V38.2428H7.29077V21.7583ZM32.0976 21.7583H33.5771V38.2428H32.0965L32.0976 21.7583Z" fill="#A545B1"/>
<path d="M20.7471 44.8808L20.1006 43.7608L32.5169 36.5927L33.1633 37.7127L20.7471 44.8808Z" fill="#A545B1"/>
<path d="M35.5377 38.7239C35.1247 39.4382 34.4452 39.9595 33.6482 40.1733C32.8513 40.3871 32.002 40.2759 31.287 39.8642C30.5726 39.4512 30.0514 38.7716 29.8376 37.9747C29.6238 37.1777 29.735 36.3285 30.1467 35.6134C30.5597 34.8991 31.2392 34.3778 32.0362 34.164C32.8332 33.9502 33.6824 34.0614 34.3974 34.4732C35.8951 35.3265 36.4017 37.2465 35.5377 38.7239ZM10.7138 24.3876C10.3008 25.102 9.62127 25.6233 8.82431 25.8371C8.02736 26.0508 7.17813 25.9397 6.46307 25.5279C5.74873 25.1149 5.22745 24.4354 5.01366 23.6384C4.79987 22.8415 4.91105 21.9923 5.32278 21.2772C5.73577 20.5628 6.41533 20.0416 7.21229 19.8278C8.00924 19.614 8.85846 19.7252 9.57353 20.1369C11.0616 20.9903 11.5682 22.9103 10.7149 24.3876M5.33238 38.7239C4.4769 37.2359 4.98464 35.3382 6.47374 34.4732C7.96176 33.6177 9.8594 34.1254 10.7245 35.6145C11.58 37.1025 11.0722 39.0002 9.58313 39.8653C8.0855 40.7207 6.18787 40.213 5.33238 38.7239ZM30.1574 24.3876C29.3019 22.8996 29.8096 21.002 31.2987 20.1369C32.7867 19.2814 34.6844 19.7892 35.5495 21.2783C36.4049 22.7663 35.8972 24.6639 34.4081 25.529C33.693 25.9407 32.8438 26.0519 32.0469 25.8381C31.2499 25.6243 30.5703 25.102 30.1574 24.3876ZM20.4324 47.4505C18.7129 47.4505 17.323 46.0606 17.323 44.3411C17.323 42.6216 18.7161 41.2317 20.4324 41.2317C22.1487 41.2317 23.5418 42.6216 23.5418 44.3411C23.5404 45.1653 23.2123 45.9554 22.6295 46.5382C22.0467 47.121 21.2566 47.4491 20.4324 47.4505ZM20.4324 18.7758C18.7129 18.7758 17.323 17.3859 17.323 15.6664C17.323 13.9469 18.7161 12.557 20.4324 12.557C22.1487 12.557 23.5418 13.9469 23.5418 15.6664C23.5425 16.075 23.4625 16.4796 23.3065 16.8572C23.1505 17.2347 22.9215 17.5778 22.6326 17.8667C22.3438 18.1555 22.0007 18.3845 21.6231 18.5406C21.2456 18.6966 20.8409 18.7765 20.4324 18.7758Z" fill="#A545B1"/>
</svg>
