<svg width="584" height="252" viewBox="0 0 584 252" fill="none" xmlns="http://www.w3.org/2000/svg">
<path d="M301.441 106.877L329.22 105.081C329.853 109.623 331.015 113.003 332.916 115.432C335.979 119.235 340.204 121.136 345.802 121.136C349.921 121.136 353.196 120.185 355.414 118.178C357.526 116.594 358.793 114.059 358.793 111.419C358.793 108.884 357.632 106.455 355.625 104.87C353.512 102.969 348.548 101.068 340.732 99.378C327.952 96.5262 318.763 92.7238 313.377 87.8653C307.99 83.3236 304.927 76.6695 305.138 69.5929C305.138 64.7343 306.617 59.8758 309.363 55.8622C312.532 51.3205 316.862 47.7294 322.037 45.7226C327.635 43.2933 335.451 42.0259 345.274 42.0259C357.315 42.0259 366.504 44.2439 372.841 48.7856C379.178 53.2217 382.981 60.4039 384.142 70.2266L356.681 71.8109C355.942 67.5861 354.463 64.5231 352.034 62.5163C349.604 60.5095 346.436 59.5589 342.317 59.5589C338.937 59.5589 336.402 60.2983 334.712 61.6713C333.128 62.9388 332.071 64.84 332.177 66.9524C332.177 68.5367 333.022 70.0154 334.289 70.966C335.663 72.2334 338.937 73.3952 344.112 74.4515C356.892 77.1976 365.976 79.9437 371.574 82.7955C377.171 85.6473 381.185 89.1327 383.614 93.252C386.149 97.4768 387.417 102.335 387.311 107.3C387.311 113.214 385.621 119.129 382.241 124.093C378.756 129.269 373.897 133.282 368.194 135.712C362.173 138.352 354.569 139.725 345.485 139.725C329.431 139.725 318.341 136.662 312.109 130.43C305.877 124.199 302.181 116.383 301.441 106.877ZM6.6541 138.141V43.7158H55.3452C64.323 43.7158 71.294 44.4552 76.0469 46.0395C80.6942 47.5182 84.8134 50.5812 87.5595 54.7004C90.6225 59.2421 92.1012 64.5231 91.9956 70.0154C92.3125 79.31 87.5595 88.1822 79.4267 92.8295C76.2581 94.625 72.7727 95.8925 69.1815 96.5262C71.8221 97.2655 74.4626 98.533 76.7862 100.012C78.5818 101.49 80.0605 103.18 81.4335 104.976C83.0179 106.771 84.3909 108.778 85.5528 110.891L99.7059 138.246H66.541L50.9092 109.201C48.9024 105.504 47.2124 103.075 45.6281 101.913C43.5157 100.434 40.9808 99.6948 38.4459 99.6948H35.911V138.035H6.6541V138.141ZM35.911 81.9505H48.2687C50.9092 81.7393 53.4441 81.3168 55.979 80.6831C57.8801 80.3662 59.5701 79.31 60.7319 77.7257C63.5837 73.9234 63.1612 68.5367 59.6757 65.2624C57.7745 63.6781 54.0778 62.8332 48.7968 62.8332H35.911V81.9505ZM0 219.046L27.7782 217.251C28.412 221.792 29.5738 225.172 31.475 227.602C34.4323 231.404 38.7628 233.411 44.3607 233.411C48.4799 233.411 51.7541 232.46 53.9722 230.453C56.0846 228.763 57.352 226.334 57.352 223.694C57.352 221.159 56.1902 218.729 54.1834 217.145C52.071 215.244 47.1068 213.343 39.1853 211.653C26.4052 208.801 17.2162 204.999 11.8295 200.14C6.44286 195.598 3.37986 188.944 3.5911 181.868C3.5911 177.009 5.06979 172.151 7.81593 168.137C10.9846 163.595 15.315 160.004 20.4904 157.997C26.0883 155.568 33.9042 154.301 43.727 154.301C55.7677 154.301 64.9567 156.519 71.294 161.06C77.6312 165.602 81.3279 172.679 82.4898 182.501L55.0284 184.086C54.289 179.861 52.8103 176.798 50.3811 174.791C48.0574 172.784 44.7832 171.834 40.664 171.939C37.2841 171.939 34.7492 172.679 33.0593 174.157C31.3693 175.425 30.4188 177.326 30.5244 179.438C30.5244 181.023 31.3693 182.501 32.6368 183.452C34.0099 184.72 37.2841 185.881 42.4595 186.938C55.2396 189.684 64.323 192.43 69.9209 195.282C75.5188 198.133 79.5324 201.619 81.9616 205.738C84.4965 209.963 85.764 214.821 85.764 219.68C85.764 225.595 83.9684 231.404 80.6942 236.368C77.2087 241.544 72.3502 245.557 66.6466 247.986C60.6263 250.627 53.0216 252 43.9382 252C27.8839 252 16.7937 248.937 10.5621 242.705C4.33045 236.368 0.844965 228.552 0 219.046H0Z" fill="#495057"/>
<path d="M140.475 211.652L166.036 219.362C164.662 225.805 161.811 231.931 157.903 237.317C154.312 242.07 149.559 245.767 144.172 248.196C138.68 250.626 131.709 251.893 123.259 251.893C113.014 251.893 104.564 250.414 98.1214 247.457C91.5729 244.5 85.975 239.219 81.2221 231.72C76.4692 224.221 74.1455 214.609 74.1455 202.885C74.1455 187.253 78.2647 175.212 86.6088 166.868C94.9528 158.524 106.677 154.3 121.886 154.3C133.821 154.3 143.116 156.729 149.981 161.482C156.741 166.34 161.811 173.734 165.191 183.662L139.419 189.366C138.785 187.148 137.835 184.93 136.567 183.028C134.983 180.81 132.976 179.12 130.547 177.853C128.118 176.586 125.372 176.057 122.625 176.057C115.971 176.057 110.902 178.698 107.416 184.085C104.776 187.993 103.402 194.224 103.402 202.674C103.402 213.13 104.987 220.313 108.155 224.221C111.324 228.128 115.76 230.03 121.569 230.03C127.167 230.03 131.392 228.445 134.244 225.382C137.095 222.108 139.208 217.566 140.475 211.652ZM200.151 155.884H229.302V188.943H261.2V155.884H290.562V250.309H261.2V212.074H229.302V250.309H200.151V155.884V155.884Z" fill="#495057"/>
<path d="M286.55 203.096C286.55 187.675 290.88 175.634 299.436 167.079C307.991 158.524 320.032 154.193 335.347 154.193C351.084 154.193 363.125 158.418 371.68 166.868C380.235 175.318 384.46 187.147 384.46 202.356C384.46 213.447 382.559 222.424 378.862 229.501C375.271 236.472 369.673 242.175 362.808 245.978C355.731 249.886 346.965 251.893 336.509 251.893C325.841 251.893 317.074 250.203 310.103 246.823C302.921 243.232 297.006 237.634 293.098 230.768C288.768 223.375 286.55 214.186 286.55 203.096ZM315.701 203.201C315.701 212.707 317.497 219.573 320.982 223.797C324.468 227.917 329.326 230.029 335.452 230.029C341.684 230.029 346.542 228.022 350.028 223.903C353.513 219.784 355.203 212.496 355.203 201.934C355.203 193.062 353.408 186.513 349.817 182.5C346.226 178.381 341.367 176.374 335.241 176.374C329.854 176.162 324.679 178.486 321.088 182.605C317.497 186.725 315.701 193.59 315.701 203.201V203.201ZM414.351 203.096C414.351 187.675 418.681 175.634 427.237 167.079C435.792 158.524 447.833 154.193 463.148 154.193C478.885 154.193 491.032 158.418 499.481 166.868C507.931 175.318 512.261 187.147 512.261 202.356C512.261 213.447 510.36 222.424 506.663 229.501C503.072 236.472 497.474 242.175 490.609 245.978C483.533 249.886 474.766 251.893 464.31 251.893C453.642 251.893 444.875 250.203 437.904 246.823C430.722 243.232 424.807 237.634 420.899 230.768C416.569 223.375 414.351 214.186 414.351 203.096V203.096ZM443.502 203.201C443.502 212.707 445.298 219.573 448.783 223.797C452.269 227.917 457.127 230.029 463.253 230.029C469.485 230.029 474.344 228.022 477.829 223.903C481.314 219.784 483.004 212.496 483.004 201.934C483.004 193.062 481.209 186.513 477.618 182.5C474.027 178.381 469.168 176.374 463.042 176.374C457.655 176.162 452.374 178.486 448.889 182.605C445.298 186.725 443.502 193.59 443.502 203.201V203.201Z" fill="#495057"/>
<path d="M509.196 155.883H538.347V227.071H583.87V250.308H509.09V155.883H509.196Z" fill="#495057"/>
<path d="M487.707 17.6443C504.763 25.372 508.469 32.2669 517.779 45.2364C525.26 57.7009 538.369 76.2789 531.987 95.7074C524.259 112.763 517.364 116.469 504.395 125.779C491.93 133.26 473.352 146.369 453.924 139.987C436.868 132.259 433.163 125.364 423.852 112.395C416.371 99.9303 403.262 81.3523 409.644 61.9238C417.372 44.8679 424.267 41.1626 437.236 31.8524C449.701 24.3709 468.279 11.2625 487.707 17.6443Z" fill="#3765AF"/>
<path d="M478.374 80.9028C479.541 76.6777 477.062 72.3068 472.837 71.1401C468.612 69.9734 464.241 72.4527 463.074 76.6778C461.907 80.9029 464.387 85.2738 468.612 86.4405C472.837 87.6072 477.208 85.1279 478.374 80.9028Z" fill="white"/>
<path d="M473.701 38.3132C470.774 40.3589 467.766 43.5303 465.013 47.5594C464.464 48.3591 463.907 49.1893 463.402 50.0668C462.804 49.7377 462.206 49.4086 461.631 49.1183C451.918 44.14 443.481 43.4505 439.606 47.268C437.711 49.1395 436.87 52.1874 437.182 56.046C437.478 59.605 438.749 63.7938 440.851 68.1795C441.267 69.0488 441.736 69.9655 442.213 70.8516C441.621 71.2131 441.068 71.5524 440.507 71.9222C431.355 77.8584 426.513 84.8206 427.881 90.0857C428.546 92.6642 430.777 94.9204 434.288 96.5788C437.512 98.0922 441.799 99.0792 446.645 99.4662C447.61 99.5358 448.644 99.5917 449.656 99.6088C449.658 100.79 449.699 101.95 449.787 103.056C450.451 113.245 453.856 120.155 458.916 121.552C461.537 122.276 464.709 121.479 468.017 119.243C471.121 117.148 474.263 113.85 477.079 109.707C477.534 109.013 477.988 108.318 478.451 107.593C479.419 108.123 480.358 108.644 481.313 109.105C490.47 113.602 498.175 114.089 501.909 110.429C502.899 109.456 503.613 108.177 504.042 106.623C504.455 105.13 504.613 103.369 504.461 101.424C504.215 97.6826 502.925 93.3245 500.757 88.8222C500.399 88.1 500.019 87.3389 499.599 86.5999C500.541 86.0399 501.461 85.4411 502.342 84.8643C508.581 80.6826 512.528 76.1304 513.673 71.9852C514.085 70.4917 514.129 69.0276 513.77 67.7147C513.09 65.0669 510.815 62.7329 507.229 60.9883C503.84 59.3635 499.409 58.3039 494.432 57.9137C493.628 57.8557 492.824 57.7977 492.003 57.8007C492.002 57.2099 491.963 56.6413 491.953 56.0811C491.422 45.175 487.797 37.5149 482.554 36.0673C479.972 35.3214 476.9 36.1131 473.701 38.3132ZM440.971 55.7474C440.76 53.065 441.225 51.0281 442.271 49.9721C444.346 47.9209 450.769 47.8248 459.906 52.5129C460.421 52.7863 460.966 53.0681 461.473 53.372C459.665 56.7108 457.995 60.3828 456.51 64.3355C452.509 65.7566 448.819 67.3617 445.524 69.0762C445.061 68.2594 444.667 67.4289 444.264 66.6289C442.391 62.6018 441.233 58.8376 440.971 55.7474ZM481.003 68.77C482.949 70.7507 484.795 72.7367 486.489 74.6805C485.974 77.2608 485.341 79.9072 484.601 82.5894C483.86 85.2715 483.053 87.837 482.219 90.2637C479.681 91.1375 477.069 91.9252 474.452 92.613C471.804 93.2923 469.151 93.8718 466.554 94.3683C464.54 92.6314 462.561 90.7726 460.667 88.8392C458.743 86.8974 456.905 84.8809 455.198 82.8677C455.722 80.257 456.315 77.6326 457.039 75.0114C457.771 72.3597 458.578 69.7943 459.499 67.2929C461.989 66.4716 464.57 65.6756 467.218 64.9962C469.935 64.3032 472.566 63.6848 475.094 63.202C477.077 64.9305 479.057 66.7893 481.003 68.77ZM479.848 62.3823C482.789 61.9479 485.549 61.6932 488.167 61.5961C488.064 64.2249 487.781 67.0333 487.333 69.9604C486.175 68.6893 484.957 67.4015 483.699 66.1356C482.427 64.8004 481.131 63.5567 479.848 62.3823ZM494.357 85.1523C492.018 86.3762 489.466 87.5412 486.778 88.6031C487.285 87.0046 487.778 85.3366 488.25 83.6298C488.729 81.8925 489.179 80.1468 489.558 78.4147C491.351 80.7139 492.961 82.9626 494.357 85.1523ZM480.504 94.8092C479.425 97.5291 478.266 100.063 477.053 102.319C474.825 100.884 472.548 99.271 470.291 97.4668C471.964 97.1088 473.685 96.6983 475.383 96.2489C477.134 95.8467 478.842 95.3668 480.504 94.8092ZM457.941 91.4651C459.168 92.7225 460.443 93.9274 461.687 95.1238C458.863 95.492 456.141 95.7247 453.532 95.7913C453.656 93.2015 453.923 90.454 454.337 87.6488C455.517 88.9588 456.705 90.2382 457.941 91.4651ZM447.455 72.2993C449.747 71.1279 452.221 70.007 454.909 68.9451C454.355 70.5962 453.853 72.2946 453.382 74.0014C452.919 75.6778 452.486 77.3625 452.123 79.0336C450.383 76.7818 448.812 74.5111 447.455 72.2993ZM466.234 61.313C464.536 61.7624 462.867 62.2203 461.252 62.7254C462.336 60.1054 463.517 57.6104 464.778 55.3016C466.953 56.6895 469.17 58.2856 471.396 60.0814C469.693 60.431 467.972 60.8415 466.234 61.313ZM446.937 95.6761C442.565 95.3544 438.743 94.4631 435.93 93.1286C433.488 91.9949 431.95 90.5535 431.564 89.1018C430.835 86.2764 433.956 80.676 442.585 75.0876C443.068 74.7619 443.582 74.4446 444.127 74.1357C446.119 77.3756 448.463 80.6471 451.115 83.8725C450.37 87.9967 449.919 92.0054 449.727 95.7903C448.775 95.79 447.872 95.7373 446.937 95.6761ZM473.955 107.598C468.377 115.8 462.76 118.678 459.926 117.895C457.213 117.146 454.19 112.178 453.568 102.788C453.493 101.751 453.458 100.691 453.461 99.6098C457.261 99.5109 461.275 99.1105 465.434 98.422C468.681 101.156 471.974 103.607 475.215 105.65C474.799 106.322 474.362 106.956 473.955 107.598ZM500.385 105.613C500.132 106.527 499.739 107.239 499.244 107.725C497.255 109.702 491.444 109.836 483.007 105.702C482.144 105.267 481.258 104.792 480.341 104.31C482.063 101.046 483.711 97.3347 485.199 93.2516C489.178 91.7917 492.938 90.1729 496.31 88.4143C496.677 89.106 497.043 89.7977 497.357 90.4421C500.611 97.3106 501.218 102.596 500.385 105.613ZM494.157 61.6429C504.058 62.3759 509.352 65.7733 510.081 68.5988C510.805 71.3244 508.018 76.4267 500.211 81.6516C499.408 82.1843 498.536 82.7307 497.663 83.277C495.707 80.1453 493.324 76.8959 490.528 73.5979C491.307 69.3518 491.774 65.2821 491.928 61.5193C492.701 61.5689 493.444 61.6101 494.157 61.6429ZM488.145 56.2104C488.171 56.7097 488.189 57.2395 488.207 57.7692C484.499 57.8933 480.468 58.3548 476.192 59.1094C472.975 56.3842 469.766 53.989 466.647 51.9796C467.134 51.163 467.644 50.3854 468.146 49.6382C470.62 46.0242 473.314 43.1596 475.874 41.3735C478.066 39.8468 480.076 39.2209 481.539 39.6249C484.365 40.4381 487.629 45.9644 488.145 56.2104Z" fill="white"/>
</svg>
