<svg width="102" height="40" viewBox="0 0 102 40" fill="none" xmlns="http://www.w3.org/2000/svg">
<path d="M52.6535 14.6509L57.5056 14.3373C57.6163 15.1306 57.8192 15.721 58.1513 16.1453C58.6863 16.8095 59.4243 17.1416 60.4021 17.1416C61.1216 17.1416 61.6935 16.9755 62.0809 16.625C62.4499 16.3483 62.6713 15.9055 62.6713 15.4443C62.6713 15.0015 62.4684 14.5772 62.1178 14.3004C61.7489 13.9683 60.8818 13.6363 59.5165 13.3411C57.2842 12.8429 55.6791 12.1788 54.7382 11.3301C53.7973 10.5368 53.2623 9.37452 53.2992 8.13844C53.2992 7.28978 53.5575 6.44113 54.0372 5.74007C54.5906 4.94676 55.347 4.31949 56.251 3.96896C57.2288 3.54463 58.5941 3.32324 60.3098 3.32324C62.413 3.32324 64.0181 3.71067 65.125 4.50398C66.232 5.27884 66.8961 6.53337 67.0991 8.24913L62.3023 8.52587C62.1732 7.78791 61.9149 7.25289 61.4906 6.90235C61.0662 6.55182 60.5128 6.38578 59.7933 6.38578C59.2029 6.38578 58.7601 6.51492 58.4649 6.75476C58.1882 6.97615 58.0037 7.30823 58.0222 7.67721C58.0222 7.95395 58.1697 8.21224 58.3911 8.37828C58.631 8.59967 59.2029 8.8026 60.1069 8.98709C62.3392 9.46677 63.9258 9.94644 64.9036 10.4446C65.8814 10.9427 66.5825 11.5515 67.0068 12.271C67.4496 13.009 67.671 13.8576 67.6525 14.7247C67.6525 15.7579 67.3574 16.791 66.767 17.6581C66.1582 18.5621 65.3095 19.2632 64.3133 19.6875C63.2617 20.1488 61.9333 20.3886 60.3467 20.3886C57.5425 20.3886 55.6053 19.8536 54.5168 18.7651C53.4283 17.6766 52.7826 16.3114 52.6535 14.6509ZM1.16229 20.1119V3.61843H9.66728C11.2355 3.61843 12.4531 3.74757 13.2833 4.02431C14.095 4.28259 14.8146 4.81761 15.2942 5.53713C15.8293 6.33043 16.0875 7.25289 16.0691 8.21224C16.1244 9.83575 15.2942 11.3855 13.8737 12.1972C13.3202 12.5109 12.7114 12.7322 12.0841 12.8429C12.5453 12.9721 13.0066 13.1935 13.4124 13.4518C13.7261 13.71 13.9844 14.0052 14.2242 14.3189C14.5009 14.6325 14.7408 14.983 14.9437 15.352L17.4159 20.1303H11.6229L8.89243 15.0568C8.54189 14.4111 8.24671 13.9868 7.96997 13.7838C7.60099 13.5256 7.15822 13.3964 6.71544 13.3964H6.27267V20.0934H1.16229V20.1119ZM6.27267 10.297H8.4312C8.89243 10.2601 9.3352 10.1863 9.77798 10.0756C10.1101 10.0202 10.4052 9.83575 10.6082 9.55902C11.1063 8.89485 11.0325 7.95395 10.4237 7.38203C10.0916 7.10529 9.4459 6.9577 8.52345 6.9577H6.27267V10.297ZM0 34.2438L4.85209 33.9302C4.96279 34.7235 5.16572 35.3139 5.49781 35.7382C6.01438 36.4024 6.77079 36.7529 7.74859 36.7529C8.4681 36.7529 9.04002 36.5868 9.42745 36.2363C9.79643 35.9411 10.0178 35.5168 10.0178 35.0556C10.0178 34.6128 9.81488 34.1885 9.46434 33.9117C9.09536 33.5797 8.22826 33.2476 6.84458 32.9524C4.61225 32.4543 3.00719 31.7901 2.06629 30.9414C1.12539 30.1481 0.590369 28.9858 0.627267 27.7498C0.627267 26.9011 0.885553 26.0525 1.36523 25.3514C1.9187 24.5581 2.67511 23.9308 3.57911 23.5803C4.55691 23.156 5.92213 22.9346 7.63789 22.9346C9.74108 22.9346 11.3461 23.322 12.4531 24.1153C13.56 24.9086 14.2057 26.1447 14.4087 27.8605L9.61194 28.1372C9.48279 27.3992 9.22451 26.8642 8.80018 26.5137C8.3943 26.1631 7.82238 25.9971 7.10287 26.0156C6.5125 26.0156 6.06973 26.1447 5.77454 26.403C5.47936 26.6244 5.31332 26.9565 5.33177 27.3254C5.33177 27.6022 5.47936 27.8605 5.70075 28.0265C5.94058 28.2479 6.5125 28.4508 7.4165 28.6353C9.64884 29.115 11.2354 29.5947 12.2132 30.0928C13.191 30.5909 13.8921 31.1997 14.3164 31.9192C14.7592 32.6572 14.9806 33.5059 14.9806 34.3545C14.9806 35.3877 14.667 36.4024 14.095 37.2695C13.4862 38.1735 12.6376 38.8745 11.6413 39.2989C10.5897 39.7601 9.26141 39.9999 7.67479 39.9999C4.87054 39.9999 2.93339 39.4649 1.8449 38.3764C0.75641 37.2695 0.147592 35.9042 0 34.2438H0Z" fill="#495057"/>
<path d="M24.5372 32.9522L29.0018 34.2989C28.762 35.4243 28.2639 36.4944 27.5812 37.4353C26.954 38.2655 26.1238 38.9112 25.1829 39.3355C24.2235 39.7598 23.0059 39.9812 21.53 39.9812C19.7404 39.9812 18.2645 39.7229 17.1391 39.2064C15.9953 38.6898 15.0175 37.7673 14.1873 36.4575C13.3571 35.1476 12.9512 33.4687 12.9512 31.4209C12.9512 28.6904 13.6707 26.5872 15.1282 25.1298C16.5856 23.6723 18.6335 22.9343 21.2901 22.9343C23.3749 22.9343 24.9984 23.3587 26.1976 24.1889C27.3783 25.0375 28.2639 26.3289 28.8542 28.0632L24.3527 29.0594C24.242 28.672 24.0759 28.2845 23.8545 27.9525C23.5778 27.565 23.2273 27.2698 22.8029 27.0485C22.3786 26.8271 21.8989 26.7348 21.4193 26.7348C20.257 26.7348 19.3714 27.1961 18.7626 28.137C18.3014 28.8196 18.0616 29.9081 18.0616 31.384C18.0616 33.2104 18.3383 34.465 18.8918 35.1476C19.4452 35.8302 20.2201 36.1623 21.2348 36.1623C22.2126 36.1623 22.9505 35.8855 23.4487 35.3505C23.9468 34.7786 24.3158 33.9853 24.5372 32.9522ZM34.9609 23.2111H40.0528V28.9856H45.6244V23.2111H50.7532V39.7045H45.6244V33.0259H40.0528V39.7045H34.9609V23.2111Z" fill="#495057"/>
<path d="M50.0524 31.4577C50.0524 28.7641 50.8088 26.6609 52.3032 25.1666C53.7975 23.6722 55.9007 22.9158 58.5758 22.9158C61.3247 22.9158 63.4279 23.6537 64.9223 25.1297C66.4166 26.6056 67.1546 28.6719 67.1546 31.3285C67.1546 33.2657 66.8225 34.8338 66.1768 36.0699C65.5495 37.2876 64.5717 38.2838 63.3726 38.948C62.1365 39.6306 60.6052 39.9811 58.7788 39.9811C56.9154 39.9811 55.3841 39.6859 54.1665 39.0956C52.912 38.4683 51.8788 37.4905 51.1962 36.2913C50.4398 34.9999 50.0524 33.3948 50.0524 31.4577ZM55.1443 31.4761C55.1443 33.1365 55.4579 34.3357 56.0667 35.0737C56.6756 35.7932 57.5242 36.1622 58.5943 36.1622C59.6828 36.1622 60.5314 35.8116 61.1402 35.0921C61.749 34.3726 62.0442 33.0996 62.0442 31.2547C62.0442 29.705 61.7306 28.5612 61.1033 27.8601C60.4761 27.1406 59.6274 26.7901 58.5574 26.7901C57.6165 26.7532 56.7125 27.159 56.0852 27.8786C55.4579 28.5981 55.1443 29.7973 55.1443 31.4761ZM72.3757 31.4577C72.3757 28.7641 73.1321 26.6609 74.6265 25.1666C76.1208 23.6722 78.224 22.9158 80.8991 22.9158C83.648 22.9158 85.7697 23.6537 87.2456 25.1297C88.7215 26.6056 89.4779 28.6719 89.4779 31.3285C89.4779 33.2657 89.1458 34.8338 88.5001 36.0699C87.8729 37.2876 86.8951 38.2838 85.6959 38.948C84.4598 39.6306 82.9285 39.9811 81.1021 39.9811C79.2387 39.9811 77.7075 39.6859 76.4898 39.0956C75.2353 38.4683 74.2021 37.4905 73.5195 36.2913C72.7631 34.9999 72.3757 33.3948 72.3757 31.4577ZM77.4676 31.4761C77.4676 33.1365 77.7812 34.3357 78.3901 35.0737C78.9989 35.7932 79.8475 36.1622 80.9176 36.1622C82.0061 36.1622 82.8547 35.8116 83.4635 35.0921C84.0724 34.3726 84.3675 33.0996 84.3675 31.2547C84.3675 29.705 84.0539 28.5612 83.4266 27.8601C82.7994 27.1406 81.9507 26.7901 80.8807 26.7901C79.9398 26.7532 79.0173 27.159 78.4085 27.8786C77.7812 28.5981 77.4676 29.7973 77.4676 31.4761Z" fill="#495057"/>
<path d="M88.9425 23.2109H94.0344V35.6456H101.986V39.7044H88.924V23.2109H88.9425Z" fill="#495057"/>
<path d="M83.3303 22.259C88.4568 18.3958 90.0376 11.847 86.8612 7.6319C83.6848 3.41679 76.9539 3.13153 71.8274 6.99476C66.7009 10.858 65.1201 17.4068 68.2965 21.6219C71.473 25.837 78.2038 26.1222 83.3303 22.259Z" fill="white"/>
<path d="M83.3303 22.259C88.4568 18.3958 90.0376 11.847 86.8612 7.6319C83.6848 3.41679 76.9539 3.13153 71.8274 6.99476C66.7009 10.858 65.1201 17.4068 68.2965 21.6219C71.473 25.837 78.2038 26.1222 83.3303 22.259Z" stroke="#495057" stroke-width="4" stroke-miterlimit="10"/>
<path d="M72.3943 13.4146L74.2392 12.1232L76.5084 15.3518C76.8958 15.8684 77.191 16.4218 77.4124 17.0306C77.5415 17.4919 77.5047 17.99 77.3202 18.4328C77.0803 18.9862 76.6929 19.4475 76.1763 19.7795C75.5675 20.2039 75.0509 20.4437 74.6082 20.5175C74.1838 20.5913 73.741 20.5175 73.3352 20.333C72.8924 20.1116 72.505 19.798 72.2098 19.3921L73.7964 17.9162C73.9255 18.1191 74.0916 18.3036 74.2761 18.4512C74.4052 18.5435 74.5528 18.5988 74.7188 18.5988C74.848 18.5988 74.9771 18.5435 75.0694 18.4697C75.2539 18.359 75.383 18.1376 75.3646 17.9162C75.3092 17.6026 75.1801 17.2889 74.9771 17.0491L72.3943 13.4146ZM77.929 15.4625L79.6078 14.1341C79.7923 14.3555 80.0322 14.5216 80.2905 14.6138C80.6594 14.7245 81.0469 14.6507 81.3605 14.4109C81.5819 14.2633 81.7664 14.0603 81.8402 13.8021C81.9509 13.47 81.7664 13.101 81.4343 12.9903C81.3789 12.9719 81.3236 12.9534 81.2683 12.9534C81.0469 12.935 80.6594 13.0272 80.0875 13.267C79.1466 13.6545 78.4087 13.8021 77.8552 13.7467C77.3202 13.6914 76.822 13.4146 76.5268 12.9534C76.3055 12.6398 76.1948 12.2708 76.1763 11.9018C76.1763 11.4775 76.287 11.0532 76.5268 10.7026C76.8774 10.2045 77.3017 9.78018 77.8183 9.44809C78.5931 8.91307 79.2758 8.65479 79.8661 8.65479C80.4565 8.65479 81.01 8.93152 81.5265 9.50344L79.8661 10.8133C79.534 10.389 78.9068 10.2967 78.4824 10.6288L78.4271 10.6842C78.2426 10.7949 78.1135 10.9609 78.0397 11.1639C77.9843 11.3114 78.0212 11.4775 78.1135 11.6066C78.1873 11.6989 78.298 11.7727 78.4271 11.7727C78.5747 11.7911 78.833 11.7173 79.202 11.5513C80.1244 11.1639 80.8255 10.9425 81.3052 10.8687C81.711 10.7949 82.1354 10.8318 82.5228 10.9978C82.8733 11.1454 83.1685 11.4037 83.3714 11.7173C83.6297 12.0863 83.7773 12.5291 83.7958 12.9903C83.8142 13.47 83.6851 13.9312 83.4268 14.3371C83.0947 14.8352 82.6704 15.2595 82.1723 15.5916C81.1576 16.2927 80.3273 16.5879 79.6632 16.4772C78.9437 16.3665 78.3533 15.9975 77.929 15.4625Z" fill="#495057"/>
</svg>
